<svg xmlns="http://www.w3.org/2000/svg" width="100" height="56" viewBox="0 0 1920 1080" version="1.1"><path d="M 263.536 496.066 C 243.784 499.099, 230.483 508.179, 223.428 523.448 C 216.742 537.921, 216.913 533.431, 217.232 685.600 L 217.519 822.500 219.738 830.325 C 225.393 850.272, 236.306 860.882, 257 866.554 C 262.672 868.109, 269.307 868.388, 309.103 868.746 C 358.004 869.186, 360.479 868.992, 366.091 864.270 C 370.803 860.305, 372 856.439, 372 845.181 C 372 834.512, 370.920 829.829, 367.611 826.155 C 362.552 820.536, 362.581 820.540, 321 820 C 277.948 819.441, 278.342 819.506, 273.847 812.274 L 271.500 808.500 271.500 682 C 271.500 556.843, 271.521 555.463, 273.523 552 C 274.721 549.927, 277.356 547.582, 279.985 546.250 C 283.910 544.260, 285.925 544, 297.396 544 C 313.561 544, 317.589 545.492, 321.183 552.810 C 323.415 557.354, 323.502 558.555, 323.993 591.500 C 324.566 629.928, 324.635 630.278, 332.500 634.402 C 336.008 636.242, 338.221 636.500, 350.500 636.500 C 367.188 636.500, 370.871 635.210, 375 627.916 L 377.500 623.500 377.455 584 C 377.405 539.709, 376.918 535.373, 370.546 522.424 C 364.295 509.725, 354.421 501.943, 339.325 497.819 C 332.242 495.884, 328.560 495.656, 300.500 495.416 C 283.450 495.270, 266.816 495.562, 263.536 496.066 M 440.843 548.933 C 430.767 552.135, 428 557.235, 428 572.604 C 428 585.981, 429.989 591.092, 436.500 594.442 C 440.254 596.373, 442.683 596.531, 476 597.008 C 513.037 597.537, 514.587 597.724, 518.683 602.144 C 522.225 605.965, 523.201 609.910, 523.225 620.500 C 523.255 633.148, 520.939 639.958, 514.632 645.772 C 510.391 649.680, 484.986 665.146, 467.500 674.463 C 446.211 685.807, 432.232 697.104, 425.708 708.236 C 424.263 710.702, 421.824 716.270, 420.290 720.610 L 417.500 728.500 417.500 775.500 C 417.500 821.864, 417.532 822.611, 419.855 830.733 C 425.507 850.494, 436.649 861.118, 457.500 866.631 C 463.610 868.246, 468.570 868.482, 496.500 868.491 C 523.953 868.499, 529.602 868.242, 536.254 866.681 C 552.864 862.784, 564.398 854.298, 570.478 841.500 C 577.658 826.388, 577.328 832.024, 577.741 717.500 C 577.985 649.962, 577.748 610.469, 577.053 602.791 C 574.304 572.426, 563.290 557.692, 538.154 550.757 C 530.993 548.782, 527.696 548.628, 487 548.367 C 463.075 548.214, 442.304 548.469, 440.843 548.933 M 642.664 549.175 C 637.009 550.744, 632.417 555.830, 631.096 561.986 C 629.610 568.915, 629.596 848.534, 631.081 854.980 C 633.524 865.582, 639.834 869.003, 656.928 868.994 C 669.381 868.988, 673.864 867.936, 678.393 863.959 C 684.052 858.991, 684.160 857.739, 683.731 802 C 683.421 761.781, 682.891 745.800, 681.132 723.500 C 679.916 708.100, 679.052 694.393, 679.211 693.040 C 679.392 691.502, 682.450 698.629, 687.364 712.040 C 711.785 778.676, 722.553 806.584, 725.488 810.843 C 731.445 819.488, 744.162 823.130, 756.183 819.635 C 762.391 817.830, 768.917 811.768, 771.731 805.190 C 772.599 803.160, 782.704 776.300, 794.187 745.500 L 815.064 689.500 814.461 699.500 C 814.130 705, 813.204 718.275, 812.404 729 C 809.245 771.365, 808.866 781.818, 809.177 817.982 L 809.500 855.500 812 859.916 C 816.129 867.210, 819.812 868.500, 836.500 868.500 C 853.693 868.500, 857.053 867.258, 861 859.448 L 863.500 854.500 863.500 708.500 L 863.500 562.500 861.250 557.934 C 859.704 554.797, 857.670 552.607, 854.750 550.934 C 850.803 548.674, 849.502 548.500, 836.500 548.500 C 820.412 548.500, 817.052 549.616, 810.658 557.086 C 806.532 561.907, 808.930 555.514, 774.309 654 C 759.712 695.525, 747.596 729.688, 747.385 729.917 C 747.173 730.146, 746.760 730.094, 746.467 729.801 C 746.174 729.508, 732.969 692.420, 717.123 647.384 C 701.276 602.348, 687.582 564.091, 686.692 562.370 C 684.072 557.305, 680.036 553.064, 675.624 550.739 C 672.120 548.892, 669.622 548.531, 659 548.338 C 652.125 548.213, 644.774 548.589, 642.664 549.175 M 964.500 549.086 C 936.284 552.874, 921.089 568.053, 917.037 596.500 C 915.656 606.197, 915.659 807.836, 917.041 818.854 C 920.160 843.732, 930.343 857.845, 949.976 864.500 C 961.400 868.373, 972.817 869.284, 1003.276 868.756 C 1029.260 868.305, 1030.910 868.161, 1039.500 865.581 C 1044.450 864.095, 1050.373 861.785, 1052.661 860.449 C 1063.233 854.277, 1071.141 842.320, 1074.715 827.102 C 1076.372 820.045, 1076.500 811.543, 1076.500 708.500 C 1076.500 604.690, 1076.382 596.998, 1074.681 589.746 C 1069.722 568.609, 1058.044 556.448, 1037.314 550.835 C 1030.351 548.950, 1026.342 548.688, 1000.500 548.433 C 984.550 548.275, 968.350 548.569, 964.500 549.086 M 1171.123 548.985 C 1167.200 549.931, 1163.430 552.543, 1160.688 556.216 C 1158.975 558.511, 1157.457 572.397, 1147.417 677.654 C 1139.596 759.637, 1135.590 797.783, 1134.501 800.636 C 1131.918 807.401, 1126.427 813.437, 1116.376 820.562 C 1101.256 831.280, 1099.581 837.404, 1107.582 852.726 C 1115.419 867.734, 1119.856 871.989, 1127.677 871.996 C 1132.518 872.001, 1140.735 868.022, 1153.689 859.403 C 1172.802 846.686, 1183.399 831.418, 1188.325 809.500 C 1189.191 805.650, 1194.208 758.400, 1199.474 704.500 C 1204.741 650.600, 1209.484 604.887, 1210.016 602.915 C 1211.284 598.208, 1214.138 597, 1223.991 597 C 1230.897 597, 1232.241 597.303, 1234.694 599.413 L 1237.500 601.826 1238 729.663 C 1238.385 828.087, 1238.782 857.993, 1239.727 859.642 C 1241.665 863.023, 1246.726 866.830, 1250.781 867.956 C 1255.892 869.376, 1274.377 869.267, 1279.312 867.788 C 1285.265 866.005, 1289.602 861.176, 1290.978 854.799 C 1291.814 850.923, 1292.038 810.822, 1291.811 705.500 L 1291.500 561.500 1289 557.084 C 1287.406 554.268, 1285.050 551.912, 1282.500 550.584 C 1278.609 548.557, 1277.083 548.496, 1226.500 548.335 C 1197.900 548.245, 1172.980 548.537, 1171.123 548.985 M 1396.484 549.395 C 1386.163 551.063, 1381.903 552.451, 1374.333 556.614 C 1366.638 560.845, 1360.696 567.439, 1356.415 576.500 C 1349.846 590.400, 1349.999 587.259, 1350.013 708.208 C 1350.025 810.944, 1350.138 818.042, 1351.892 826.538 C 1356.375 848.260, 1367.632 860.395, 1388.686 866.205 C 1396.043 868.235, 1399.169 868.385, 1442.103 868.759 C 1472.873 869.027, 1489.012 868.805, 1491.722 868.075 C 1501.369 865.477, 1504.967 859.194, 1504.934 845 C 1504.902 831.223, 1502.434 825.536, 1495 822.112 C 1492.043 820.750, 1485.600 820.422, 1453.500 820 C 1410.169 819.430, 1410.552 819.503, 1406.250 811.015 C 1404.264 807.097, 1404 805.070, 1404 793.743 C 1404 775.166, 1401.866 776.425, 1434.566 775.706 C 1464.445 775.048, 1471.340 773.959, 1483.688 767.950 C 1493.266 763.288, 1499.199 757.120, 1503.908 746.928 C 1509.894 733.975, 1510.193 730.697, 1510.720 672.426 C 1511.452 591.415, 1509.734 579.321, 1495.303 563.893 C 1490.054 558.281, 1479.175 552.574, 1469.500 550.357 C 1459.980 548.176, 1408.247 547.494, 1396.484 549.395 M 981.117 598.376 C 976.263 600.132, 972.375 604.453, 971.103 609.507 C 969.562 615.627, 969.555 801.347, 971.096 807.465 C 971.698 809.858, 973.493 813.147, 975.084 814.775 C 979.262 819.048, 984.754 820.230, 998.597 819.835 C 1012.776 819.431, 1016.464 818.037, 1020.086 811.714 L 1022.500 807.500 1022.500 709.500 C 1022.500 632.695, 1022.225 610.725, 1021.227 607.915 C 1019.674 603.541, 1015.651 599.657, 1011.101 598.136 C 1006.629 596.642, 985.443 596.811, 981.117 598.376 M 1414.741 598.381 C 1409.678 600.253, 1408.012 601.776, 1405.863 606.500 C 1404.174 610.215, 1404.045 614.454, 1404.054 666 C 1404.064 725.842, 1403.888 723.866, 1409.397 725.961 C 1413.087 727.364, 1446.811 727.310, 1450.872 725.895 C 1452.616 725.287, 1454.483 723.967, 1455.021 722.961 C 1455.626 721.831, 1456 699.972, 1456 665.778 L 1456 610.424 1453.750 605.985 C 1450.121 598.826, 1446.863 597.546, 1431.500 597.245 C 1422.317 597.065, 1417.396 597.399, 1414.741 598.381 M 503 712.089 C 480.704 724.949, 475.095 729.601, 472.826 737.112 C 471.838 740.380, 471.500 750.051, 471.500 775 C 471.500 808.410, 471.506 808.510, 473.847 812.274 C 477.826 818.675, 480.469 819.500, 497 819.500 C 512.775 819.500, 516.001 818.594, 520.142 813 C 523.598 808.331, 524.026 800.852, 523.759 749.855 L 523.500 700.264 503 712.089" stroke="none" fill="#0ca4fc" fill-rule="evenodd" /><path d="M 1542.306 497.411 L 1539.500 499.822 1539.184 517.545 C 1538.983 528.835, 1539.265 536.227, 1539.963 537.911 C 1542.099 543.067, 1543.827 543.461, 1566.718 544 C 1585.339 544.439, 1588.153 544.718, 1589.718 546.285 C 1591.408 547.978, 1591.526 556.039, 1592 701.785 L 1592.500 855.500 1595 859.916 C 1598.864 866.743, 1603.047 868.430, 1617.095 868.830 C 1623.576 869.015, 1630.503 868.672, 1632.800 868.054 C 1637.185 866.873, 1642.262 863.151, 1644.273 859.642 C 1645.222 857.985, 1645.613 822.555, 1646 703.278 L 1646.500 549.055 1648.775 546.778 C 1650.965 544.584, 1651.841 544.482, 1672.503 544 L 1693.956 543.500 1696.728 540.726 L 1699.500 537.952 1699.500 518.889 L 1699.500 499.825 1696.694 497.413 L 1693.888 495 1619.500 495 L 1545.112 495 1542.306 497.411" stroke="none" fill="#fcfcfc" fill-rule="evenodd" /></svg>