<svg xmlns="http://www.w3.org/2000/svg" width="100" height="56" viewBox="0 0 1920 1080" version="1.1"><path d="M 278.536 546.066 C 252.791 550.019, 237.989 564.197, 233.564 589.142 C 232.060 597.617, 231.932 611.421, 232.208 735.500 L 232.512 872.500 234.734 880.325 C 240.358 900.128, 251.203 910.585, 271.997 916.254 C 278.876 918.129, 283.128 918.337, 323.101 918.751 C 369.334 919.231, 375.431 918.809, 380.565 914.770 C 385.192 911.131, 386.953 905.673, 386.978 894.899 C 387.002 884.511, 385.908 879.816, 382.611 876.155 C 377.552 870.536, 377.581 870.540, 336 870 C 292.948 869.441, 293.342 869.506, 288.847 862.274 L 286.500 858.500 286.213 734 C 285.999 641.215, 286.225 608.414, 287.097 605.236 C 289.637 595.986, 298.591 592.313, 316.251 593.278 C 324.317 593.719, 326.759 594.255, 330.381 596.378 C 338.033 600.862, 338.287 602.203, 338.937 641.500 C 339.539 677.875, 339.519 677.734, 344.948 682.303 C 352.535 688.687, 378.473 688.680, 386.065 682.292 C 392.607 676.787, 392.502 677.574, 392.476 634 C 392.453 596.450, 392.341 594.061, 390.213 585.615 C 384.974 564.830, 373.907 553.167, 354.353 547.826 C 347.236 545.882, 343.593 545.656, 315.500 545.416 C 298.450 545.270, 281.816 545.562, 278.536 546.066 M 455.843 598.933 C 450.547 600.616, 446.916 603.543, 444.863 607.784 C 443.115 611.393, 442.786 613.847, 442.879 622.575 C 443.004 634.388, 444.191 638.300, 448.835 642.208 C 453.784 646.372, 459.560 647, 492.900 647 C 513.232 647, 524.857 647.386, 527.101 648.136 C 531.955 649.758, 535.856 653.766, 537.145 658.452 C 538.780 664.400, 538.539 677.664, 536.681 684 C 533.669 694.272, 529.069 698.018, 498 715.491 C 462.083 735.692, 459.936 737.082, 450.888 746 C 444.071 752.718, 441.521 756.072, 438.722 762 C 432.145 775.927, 431.821 779.259, 432.237 828.599 C 432.586 869.976, 432.732 872.950, 434.782 880.325 C 437.621 890.541, 441.234 897.016, 447.703 903.486 C 453.728 909.511, 460.532 913.042, 472.278 916.239 C 480.014 918.344, 482.391 918.473, 512.500 918.424 C 542.234 918.375, 545.060 918.216, 552.410 916.186 C 563.109 913.229, 569.604 910.077, 575.136 905.155 C 584.753 896.600, 590.086 884.183, 591.951 866.010 C 593.318 852.694, 593.353 667.677, 591.992 652.302 C 589.363 622.604, 578.084 607.636, 553.154 600.757 C 545.993 598.782, 542.696 598.628, 502 598.367 C 478.075 598.214, 457.304 598.469, 455.843 598.933 M 657.664 599.223 C 651.964 600.733, 647.397 605.825, 646.024 612.201 C 645.190 616.072, 644.966 656.307, 645.191 761.500 L 645.500 905.500 647.763 909.737 C 651.108 915.997, 655.963 918.112, 668.440 918.744 C 685.611 919.614, 693.336 916.874, 697.104 908.579 C 698.820 904.800, 698.958 901.117, 698.977 858.500 C 698.989 833.200, 698.566 807.775, 698.037 802 C 696.458 784.770, 693.786 743.143, 694.181 741.956 C 694.384 741.349, 703.486 765.073, 714.410 794.676 C 737.147 856.296, 738.416 859.350, 743.350 864.283 C 749.531 870.464, 761.163 872.626, 771.586 869.530 C 777.351 867.818, 782.703 862.803, 786.178 855.857 C 787.455 853.303, 797.725 826.230, 809 795.694 C 820.275 765.157, 829.645 740.317, 829.822 740.492 C 830.252 740.918, 828.383 767.837, 826.246 792 C 824.920 806.993, 824.519 822.248, 824.511 858 L 824.500 904.500 826.810 909.190 C 830.084 915.836, 835.217 918.170, 847.899 918.781 C 864.990 919.604, 874.065 916.016, 877.189 907.200 C 878.247 904.213, 878.500 875.466, 878.500 758 L 878.500 612.500 876.250 607.934 C 874.704 604.797, 872.670 602.607, 869.750 600.934 C 865.803 598.674, 864.502 598.500, 851.500 598.500 C 839.006 598.500, 837.060 598.736, 833.405 600.691 C 828.386 603.377, 823.384 608.929, 821.056 614.397 C 820.096 616.654, 806.582 654.725, 791.026 699 C 775.470 743.275, 762.576 779.688, 762.371 779.917 C 762.167 780.146, 761.742 780.075, 761.426 779.759 C 761.110 779.444, 748.066 742.806, 732.439 698.343 C 716.812 653.879, 702.778 615.044, 701.252 612.043 C 698.154 605.946, 692.045 600.662, 686.225 599.046 C 681.557 597.749, 662.786 597.866, 657.664 599.223 M 979.500 599.086 C 954.029 602.505, 939.302 615.093, 933.270 638.600 C 931.628 645, 931.500 653.609, 931.500 757.500 C 931.500 882.643, 931.212 877.159, 938.563 891.852 C 944.748 904.216, 954.865 911.776, 971.154 916.207 C 979.041 918.352, 981.258 918.474, 1011.500 918.424 C 1041.234 918.375, 1044.060 918.216, 1051.410 916.186 C 1068.521 911.458, 1078.195 904.331, 1084.437 891.852 C 1091.784 877.168, 1091.500 882.524, 1091.500 758.500 C 1091.500 634.738, 1091.780 640.122, 1084.582 625.500 C 1078.414 612.972, 1068.143 605.121, 1052.314 600.835 C 1045.351 598.950, 1041.342 598.688, 1015.500 598.433 C 999.550 598.275, 983.350 598.569, 979.500 599.086 M 1186.123 598.985 C 1182.203 599.930, 1178.430 602.543, 1175.695 606.207 C 1173.990 608.490, 1172.449 622.581, 1162.409 727.645 C 1154.448 810.952, 1150.568 847.776, 1149.436 850.767 C 1147.273 856.484, 1139.378 864.930, 1130.978 870.514 C 1115.506 880.801, 1114.214 887.919, 1124.517 906.117 C 1132.072 919.460, 1137.450 923.264, 1146.387 921.587 C 1150.567 920.803, 1168.929 909.820, 1177.614 902.909 C 1191.938 891.512, 1201.158 874.068, 1204.523 852 C 1205.320 846.775, 1210.051 800.425, 1215.037 749 C 1220.022 697.575, 1224.309 654.500, 1224.563 653.278 C 1225.569 648.433, 1228.667 647, 1238.133 647 C 1245.946 647, 1247.190 647.260, 1249.694 649.413 L 1252.500 651.826 1253 779.163 C 1253.368 872.910, 1253.807 907.183, 1254.664 909.089 C 1257.953 916.404, 1267.177 919.548, 1283.101 918.781 C 1295.325 918.192, 1301.028 915.733, 1304.283 909.645 L 1306.500 905.500 1306.500 758.500 L 1306.500 611.500 1304 607.084 C 1302.406 604.268, 1300.050 601.912, 1297.500 600.584 C 1293.609 598.557, 1292.083 598.496, 1241.500 598.335 C 1212.900 598.245, 1187.980 598.537, 1186.123 598.985 M 1411.484 599.395 C 1401.188 601.059, 1396.903 602.452, 1389.420 606.565 C 1378.935 612.329, 1371.962 621.513, 1367.828 635 L 1365.529 642.500 1365.239 754.439 C 1364.917 878.878, 1364.794 876.192, 1371.510 890.728 C 1377.606 903.923, 1387.461 911.515, 1404.500 916.144 C 1411.999 918.181, 1415.232 918.345, 1456.132 918.754 C 1505.050 919.244, 1508.828 918.914, 1514.392 913.666 C 1518.629 909.670, 1519.999 904.823, 1519.951 894 C 1519.893 881.264, 1517.251 875.451, 1510 872.112 C 1507.043 870.750, 1500.600 870.422, 1468.500 870 C 1425.169 869.430, 1425.552 869.503, 1421.250 861.015 C 1419.267 857.103, 1419 855.066, 1419 843.844 C 1419 831.827, 1419.136 830.954, 1421.413 828.306 L 1423.825 825.500 1452.663 824.871 C 1475.377 824.376, 1482.761 823.881, 1487.437 822.541 C 1502.416 818.249, 1512.802 809.911, 1518.604 797.521 C 1524.886 784.108, 1525.172 781.111, 1525.710 723 C 1526.345 654.364, 1525.254 639.901, 1518.336 625.252 C 1512.659 613.234, 1499.979 603.904, 1484.500 600.357 C 1474.980 598.176, 1423.247 597.494, 1411.484 599.395 M 996.155 648.274 C 990.972 649.932, 987.301 654.267, 986.010 660.257 C 985.201 664.009, 984.967 692.791, 985.190 761.500 C 985.496 856.258, 985.527 857.551, 987.565 861.435 C 990.878 867.751, 995.258 869.436, 1009.403 869.837 C 1016.771 870.046, 1022.967 869.709, 1025.667 868.953 C 1030.449 867.614, 1035.471 862.750, 1036.736 858.232 C 1037.156 856.729, 1037.500 811.850, 1037.500 758.500 C 1037.500 682.505, 1037.224 660.724, 1036.227 657.915 C 1034.674 653.541, 1030.651 649.657, 1026.101 648.136 C 1021.883 646.726, 1000.689 646.824, 996.155 648.274 M 1429.741 648.381 C 1424.678 650.253, 1423.012 651.776, 1420.863 656.500 C 1419.175 660.212, 1419.042 664.488, 1419.022 715.816 C 1419.008 750.030, 1419.373 771.829, 1419.979 772.961 C 1421.713 776.201, 1426.664 777, 1445 777 C 1463.336 777, 1468.287 776.201, 1470.021 772.961 C 1470.626 771.831, 1471 749.972, 1471 715.778 L 1471 660.424 1468.750 655.985 C 1465.121 648.826, 1461.863 647.546, 1446.500 647.245 C 1437.317 647.065, 1432.396 647.399, 1429.741 648.381 M 518.617 761.620 C 507.681 767.860, 497.254 774.094, 495.445 775.474 C 493.635 776.854, 490.883 780.575, 489.328 783.742 L 486.500 789.500 486.500 824 C 486.500 858.459, 486.503 858.504, 488.847 862.274 C 492.826 868.675, 495.469 869.500, 512 869.500 C 528.030 869.500, 530.954 868.682, 534.943 863.080 C 538.638 857.891, 539.029 851.414, 538.759 799.860 L 538.500 750.275 518.617 761.620" stroke="none" fill="#0ca4fc" fill-rule="evenodd" /><path d="M 1556.923 547.923 L 1554 550.846 1554 568.473 C 1554 587.559, 1554.865 591.496, 1559.268 592.459 C 1560.496 592.728, 1570.500 593.099, 1581.500 593.283 C 1592.500 593.468, 1602.253 593.965, 1603.173 594.387 C 1604.093 594.809, 1605.218 595.907, 1605.673 596.827 C 1606.128 597.747, 1606.725 667.350, 1607 751.500 L 1607.500 904.500 1609.810 909.190 C 1613.084 915.836, 1618.217 918.170, 1630.899 918.781 C 1647.619 919.586, 1655.379 916.779, 1659.104 908.579 C 1660.880 904.667, 1660.957 898.336, 1660.984 754 C 1661.002 653.128, 1661.353 602.267, 1662.049 599.762 C 1662.620 597.706, 1664.080 595.464, 1665.294 594.781 C 1666.767 593.951, 1674.553 593.366, 1688.725 593.019 C 1716.236 592.346, 1714.379 593.823, 1714.823 572.273 C 1715.199 554.081, 1714.737 550.646, 1711.479 547.388 L 1709.091 545 1634.469 545 L 1559.846 545 1556.923 547.923" stroke="none" fill="#e4dcdc" fill-rule="evenodd" /></svg>